# xmcd
#
# Track frame offsets:
#	150
#	9573
#	28320
#	58246
#	70306
#	78593
#	99084
#	126547
#	174931
#	218522
#
# Disc length: 3601 seconds
#
# Revision: 1
# Processed by: cddbd v1.5.2PL0 Copyright (c) Steve Scherf et al.
# Submitted via: audiograbber 1.83.01
#
DISCID=860e0f0a
DTITLE=Grateful Dead - 68-08-23 Shrine Auditorium, Los Angeles CA
DYEAR=1900
DGENRE=
TTITLE0=Cryptical Envelopment
TTITLE1=The Other One
TTITLE2=Cryptical Envelopment
TTITLE3=St Stephen
TTITLE4=Cryptical Envelopment
TTITLE5=The Other One
TTITLE6=Cryptical Envelopment
TTITLE7=Ne Potato Caboose
TTITLE8=Alligator
TTITLE9=Caution Jam
EXTD=
EXTT0=
EXTT1=
EXTT2=
EXTT3=
EXTT4=
EXTT5=
EXTT6=
EXTT7=
EXTT8=
EXTT9=
PLAYORDER=
